<?xml version="1.0" encoding="UTF-8" standalone="no"?>
<!-- Created with Inkscape (http://www.inkscape.org/) -->

<svg
   xmlns:dc="http://purl.org/dc/elements/1.1/"
   xmlns:cc="http://creativecommons.org/ns#"
   xmlns:rdf="http://www.w3.org/1999/02/22-rdf-syntax-ns#"
   xmlns:svg="http://www.w3.org/2000/svg"
   xmlns="http://www.w3.org/2000/svg"
   xmlns:xlink="http://www.w3.org/1999/xlink"
   xmlns:sodipodi="http://sodipodi.sourceforge.net/DTD/sodipodi-0.dtd"
   xmlns:inkscape="http://www.inkscape.org/namespaces/inkscape"
   width="512"
   height="512"
   viewBox="0 0 135.46667 135.46667"
   version="1.1"
   id="svg8"
   inkscape:export-filename="/home/jacob/Projects/Closer/wip/icon_chat.png"
   inkscape:export-xdpi="96"
   inkscape:export-ydpi="96"
   inkscape:version="0.92.3 (5aff6ba, 2018-11-25)"
   sodipodi:docname="drawing-1-2-3.svg">
  <defs
     id="defs2">
    <linearGradient
       id="linearGradient4668-7-3"
       inkscape:collect="always">
      <stop
         id="stop4672"
         offset="0"
         style="stop-color:#8bc34a;stop-opacity:1;" />
      <stop
         id="stop4674"
         offset="1"
         style="stop-color:#aed581;stop-opacity:1" />
    </linearGradient>
    <linearGradient
       inkscape:collect="always"
       xlink:href="#linearGradient4668-7-3"
       id="linearGradient4682"
       gradientUnits="userSpaceOnUse"
       x1="104.6404"
       y1="124.20612"
       x2="104.6404"
       y2="71.87738"
       gradientTransform="matrix(5.2374837,0,0,6.2030392,-291.64514,-379.2583)" />
  </defs>
  <sodipodi:namedview
     id="base"
     pagecolor="#ffffff"
     bordercolor="#666666"
     borderopacity="1.0"
     inkscape:pageopacity="0.0"
     inkscape:pageshadow="2"
     inkscape:zoom="1.3886719"
     inkscape:cx="302.78946"
     inkscape:cy="225.50588"
     inkscape:document-units="mm"
     inkscape:current-layer="layer1"
     showgrid="false"
     units="px"
     inkscape:window-width="1920"
     inkscape:window-height="1043"
     inkscape:window-x="0"
     inkscape:window-y="0"
     inkscape:window-maximized="1" />
  <metadata
     id="metadata5">
    <rdf:RDF>
      <cc:Work
         rdf:about="">
        <dc:format>image/svg+xml</dc:format>
        <dc:type
           rdf:resource="http://purl.org/dc/dcmitype/StillImage" />
        <dc:title></dc:title>
      </cc:Work>
    </rdf:RDF>
  </metadata>
  <g
     inkscape:label="Layer 1"
     inkscape:groupmode="layer"
     id="layer1"
     transform="translate(0,-161.53334)">
    <path
       style="fill:#f44336;fill-opacity:1;fill-rule:nonzero;stroke:none;stroke-width:0;stroke-linecap:round;stroke-miterlimit:4;stroke-dasharray:none;stroke-opacity:1"
       d="M 61.847197,164.10617 A 65.667698,65.667547 0 0 0 2.580218,223.51984 h 10.939396 c 2.799831,-25.38107 22.946508,-45.52714 48.327583,-48.32697 z"
       id="path1492"
       inkscape:connector-curvature="0" />
    <path
       style="fill:#8bc34a;fill-opacity:1;stroke:none;stroke-width:0;stroke-linecap:round;stroke-miterlimit:4;stroke-dasharray:none;stroke-opacity:1"
       d="m 74.020621,164.14223 v 11.05064 c 25.381078,2.79983 45.527759,22.9459 48.327579,48.32697 h 10.93512 A 65.667698,65.667547 0 0 0 74.020621,164.14223 Z"
       id="path1490"
       inkscape:connector-curvature="0" />
    <path
       style="fill:#2196f3;fill-opacity:1;stroke:none;stroke-width:0;stroke-linecap:round;stroke-miterlimit:4;stroke-dasharray:none;stroke-opacity:1"
       d="m 67.933604,187.00079 c -23.555102,0 -42.606069,19.05097 -42.606069,42.60607 0,23.55511 19.050967,42.60607 42.606069,42.60607 23.555098,0 42.606676,-19.05096 42.606676,-42.60607 0,-23.5551 -19.051578,-42.60607 -42.606676,-42.60607 z"
       id="path1488"
       inkscape:connector-curvature="0" />
    <path
       inkscape:connector-curvature="0"
       style="fill:#000000;fill-opacity:0.15;stroke:#388e3c;stroke-width:0;stroke-linecap:round;stroke-miterlimit:4;stroke-dasharray:none;stroke-opacity:1"
       d="m 78.970262,214.06508 -26.051817,27.46524 31.164302,27.52549 c 10.707476,-4.58421 21.059433,-14.05746 24.761143,-27.82423 z"
       id="path4649-1"
       sodipodi:nodetypes="ccccc" />
    <path
       style="fill:#ffffff;fill-opacity:1;stroke:none;stroke-width:0;stroke-linecap:round;stroke-miterlimit:4;stroke-dasharray:none;stroke-opacity:1"
       d="m 67.933604,210.66859 c 10.463209,0 18.938272,8.47506 18.938272,18.93827 0,10.46322 -8.475063,18.93766 -18.938272,18.93766 -10.463213,0 -18.937662,-8.47444 -18.937662,-18.93766 0,-10.46321 8.474449,-18.93827 18.937662,-18.93827 z"
       id="path1486"
       inkscape:connector-curvature="0" />
    <path
       style="fill:#ffb300;fill-opacity:1;stroke:none;stroke-width:0;stroke-linecap:round;stroke-miterlimit:4;stroke-dasharray:none;stroke-opacity:1"
       d="M 2.5832738,235.69327 C 3.691171,247.11779 7.7742296,258.05238 14.425423,267.407 l -6.6078192,23.84383 23.6641832,-7.19514 c 9.069866,6.05785 19.505799,9.76118 30.36541,10.77559 V 284.02085 C 36.466122,281.22102 16.319445,261.07434 13.519614,235.69327 Z"
       id="path1484"
       inkscape:connector-curvature="0"
       sodipodi:nodetypes="cccccccc" />
    <path
       style="fill:#9c27b0;fill-opacity:1;stroke:none;stroke-width:0;stroke-linecap:round;stroke-miterlimit:4;stroke-dasharray:none;stroke-opacity:1"
       d="m 122.3482,235.69327 c -2.79982,25.38107 -22.946501,45.52775 -48.327579,48.32758 v 10.8031 a 65.667698,65.667547 0 0 0 59.210139,-59.13068 z"
       id="path4649"
       inkscape:connector-curvature="0" />
  </g>
</svg>
