<?xml version="1.0" encoding="UTF-8" standalone="no"?>
<!-- Created with Inkscape (http://www.inkscape.org/) -->

<svg
   xmlns:dc="http://purl.org/dc/elements/1.1/"
   xmlns:cc="http://creativecommons.org/ns#"
   xmlns:rdf="http://www.w3.org/1999/02/22-rdf-syntax-ns#"
   xmlns:svg="http://www.w3.org/2000/svg"
   xmlns="http://www.w3.org/2000/svg"
   xmlns:sodipodi="http://sodipodi.sourceforge.net/DTD/sodipodi-0.dtd"
   xmlns:inkscape="http://www.inkscape.org/namespaces/inkscape"
   width="256"
   height="256"
   viewBox="0 0 67.733332 67.733335"
   version="1.1"
   id="svg8"
   sodipodi:docname="drawing_3.svg"
   inkscape:version="0.92.3 (d244b95, 2018-08-02)">
  <defs
     id="defs2" />
  <sodipodi:namedview
     id="base"
     pagecolor="#ffffff"
     bordercolor="#666666"
     borderopacity="1.0"
     inkscape:pageopacity="0.0"
     inkscape:pageshadow="2"
     inkscape:zoom="1.979899"
     inkscape:cx="111.40394"
     inkscape:cy="143.26324"
     inkscape:document-units="mm"
     inkscape:current-layer="layer1"
     showgrid="false"
     units="px"
     inkscape:window-width="1920"
     inkscape:window-height="1025"
     inkscape:window-x="0"
     inkscape:window-y="27"
     inkscape:window-maximized="1" />
  <metadata
     id="metadata5">
    <rdf:RDF>
      <cc:Work
         rdf:about="">
        <dc:format>image/svg+xml</dc:format>
        <dc:type
           rdf:resource="http://purl.org/dc/dcmitype/StillImage" />
        <dc:title></dc:title>
      </cc:Work>
    </rdf:RDF>
  </metadata>
  <g
     inkscape:label="Layer 1"
     inkscape:groupmode="layer"
     id="layer1"
     transform="translate(0,-229.26665)">
    <path
       style="fill:#fffaff;fill-opacity:0.34328362;stroke:none;stroke-width:0;stroke-linecap:round;stroke-miterlimit:4;stroke-dasharray:none;stroke-opacity:0.96825406"
       id="path815"
       sodipodi:type="arc"
       sodipodi:cx="17.639788"
       sodipodi:cy="292.32278"
       sodipodi:rx="4.4099469"
       sodipodi:ry="4.4099469"
       sodipodi:start="0"
       sodipodi:end="6.2797994"
       sodipodi:open="true"
       d="m 22.049735,292.32278 a 4.4099469,4.4099469 0 0 1 -4.406214,4.40995 4.4099469,4.4099469 0 0 1 -4.413674,-4.40248 4.4099469,4.4099469 0 0 1 4.398742,-4.4174 4.4099469,4.4099469 0 0 1 4.42112,4.395" />
    <path
       style="fill:#fffaff;fill-opacity:0.34328362;stroke:none;stroke-width:0;stroke-linecap:round;stroke-miterlimit:4;stroke-dasharray:none;stroke-opacity:0.96825406"
       id="path821"
       sodipodi:type="arc"
       sodipodi:cx="25.390604"
       sodipodi:cy="241.94246"
       sodipodi:rx="8.2853556"
       sodipodi:ry="8.2853556"
       sodipodi:start="0"
       sodipodi:end="6.2797994"
       sodipodi:open="true"
       d="m 33.67596,241.94246 a 8.2853556,8.2853556 0 0 1 -8.278343,8.28535 8.2853556,8.2853556 0 0 1 -8.292357,-8.27132 8.2853556,8.2853556 0 0 1 8.264304,-8.29936 8.2853556,8.2853556 0 0 1 8.306348,8.25728" />
    <path
       style="fill:#fffaff;fill-opacity:0.34328362;stroke:none;stroke-width:0;stroke-linecap:round;stroke-miterlimit:4;stroke-dasharray:none;stroke-opacity:0.96825406"
       id="path823"
       sodipodi:type="arc"
       sodipodi:cx="48.242153"
       sodipodi:cy="260.91858"
       sodipodi:rx="6.6817379"
       sodipodi:ry="6.6817379"
       sodipodi:start="0"
       sodipodi:end="6.2797994"
       sodipodi:open="true"
       d="m 54.923891,260.91858 a 6.6817379,6.6817379 0 0 1 -6.676082,6.68173 6.6817379,6.6817379 0 0 1 -6.687384,-6.67042 6.6817379,6.6817379 0 0 1 6.66476,-6.69303 6.6817379,6.6817379 0 0 1 6.698668,6.6591" />
    <path
       style="fill:#fffaff;fill-opacity:0.34328362;stroke:none;stroke-width:0;stroke-linecap:round;stroke-miterlimit:4;stroke-dasharray:none;stroke-opacity:0.96825406"
       id="path825"
       sodipodi:type="arc"
       sodipodi:cx="5.4790268"
       sodipodi:cy="265.46219"
       sodipodi:rx="16.30344"
       sodipodi:ry="16.30344"
       sodipodi:start="0"
       sodipodi:end="6.2797994"
       sodipodi:open="true"
       d="M 21.782467,265.46219 A 16.30344,16.30344 0 0 1 5.4928273,281.76562 16.30344,16.30344 0 0 1 -10.82439,265.48979 16.30344,16.30344 0 0 1 5.4376254,249.1588 16.30344,16.30344 0 0 1 21.782373,265.40699" />
    <path
       style="fill:#fffaff;fill-opacity:0.34328362;stroke:none;stroke-width:0;stroke-linecap:round;stroke-miterlimit:4;stroke-dasharray:none;stroke-opacity:0.96825406"
       id="path829"
       sodipodi:type="arc"
       sodipodi:cx="53.320271"
       sodipodi:cy="285.64099"
       sodipodi:rx="7.8844509"
       sodipodi:ry="7.8844509"
       sodipodi:start="0"
       sodipodi:end="6.2797994"
       sodipodi:open="true"
       d="m 61.204721,285.64099 a 7.8844509,7.8844509 0 0 1 -7.877776,7.88445 7.8844509,7.8844509 0 0 1 -7.891114,-7.8711 7.8844509,7.8844509 0 0 1 7.864418,-7.89777 7.8844509,7.8844509 0 0 1 7.904427,7.85773" />
    <path
       style="fill:#fffaff;fill-opacity:0.34328362;stroke:none;stroke-width:0;stroke-linecap:round;stroke-miterlimit:4;stroke-dasharray:none;stroke-opacity:0.96825406"
       id="path831"
       sodipodi:type="arc"
       sodipodi:cx="63.610149"
       sodipodi:cy="234.59256"
       sodipodi:rx="17.907059"
       sodipodi:ry="17.907059"
       sodipodi:start="0"
       sodipodi:end="6.2797994"
       sodipodi:open="true"
       d="m 81.517208,234.59256 a 17.907059,17.907059 0 0 1 -17.891901,17.90705 17.907059,17.907059 0 0 1 -17.922191,-17.87673 17.907059,17.907059 0 0 1 17.86156,-17.93732 17.907059,17.907059 0 0 1 17.952429,17.84637" />
  </g>
</svg>
