<?xml version="1.0" encoding="UTF-8" standalone="no"?>
<!-- Created with Inkscape (http://www.inkscape.org/) -->

<svg
   xmlns:dc="http://purl.org/dc/elements/1.1/"
   xmlns:cc="http://creativecommons.org/ns#"
   xmlns:rdf="http://www.w3.org/1999/02/22-rdf-syntax-ns#"
   xmlns:svg="http://www.w3.org/2000/svg"
   xmlns="http://www.w3.org/2000/svg"
   xmlns:sodipodi="http://sodipodi.sourceforge.net/DTD/sodipodi-0.dtd"
   xmlns:inkscape="http://www.inkscape.org/namespaces/inkscape"
   width="256"
   height="256"
   viewBox="0 0 67.733332 67.733335"
   version="1.1"
   id="svg8"
   sodipodi:docname="drawing_2.svg"
   inkscape:version="0.92.3 (d244b95, 2018-08-02)">
  <defs
     id="defs2" />
  <sodipodi:namedview
     id="base"
     pagecolor="#ffffff"
     bordercolor="#666666"
     borderopacity="1.0"
     inkscape:pageopacity="0.0"
     inkscape:pageshadow="2"
     inkscape:zoom="1.979899"
     inkscape:cx="111.40394"
     inkscape:cy="143.26324"
     inkscape:document-units="mm"
     inkscape:current-layer="layer1"
     showgrid="false"
     units="px"
     inkscape:window-width="1920"
     inkscape:window-height="1025"
     inkscape:window-x="0"
     inkscape:window-y="27"
     inkscape:window-maximized="1" />
  <metadata
     id="metadata5">
    <rdf:RDF>
      <cc:Work
         rdf:about="">
        <dc:format>image/svg+xml</dc:format>
        <dc:type
           rdf:resource="http://purl.org/dc/dcmitype/StillImage" />
        <dc:title></dc:title>
      </cc:Work>
    </rdf:RDF>
  </metadata>
  <g
     inkscape:label="Layer 1"
     inkscape:groupmode="layer"
     id="layer1"
     transform="translate(0,-229.26665)">
    <path
       style="fill:#ffffff;fill-opacity:0.34328359;stroke:none;stroke-width:0;stroke-linecap:round;stroke-miterlimit:4;stroke-dasharray:none;stroke-opacity:0.96825406"
       id="path815"
       sodipodi:type="arc"
       sodipodi:cx="47.841244"
       sodipodi:cy="259.44864"
       sodipodi:rx="4.4099469"
       sodipodi:ry="4.4099469"
       sodipodi:start="0"
       sodipodi:end="6.2797994"
       sodipodi:open="true"
       d="m 52.251191,259.44864 a 4.4099469,4.4099469 0 0 1 -4.406214,4.40994 4.4099469,4.4099469 0 0 1 -4.413674,-4.40248 4.4099469,4.4099469 0 0 1 4.398742,-4.41739 4.4099469,4.4099469 0 0 1 4.42112,4.395" />
    <path
       style="fill:#ffffff;fill-opacity:0.34328359;stroke:none;stroke-width:0;stroke-linecap:round;stroke-miterlimit:4;stroke-dasharray:none;stroke-opacity:0.96825406"
       id="path821"
       sodipodi:type="arc"
       sodipodi:cx="28.731474"
       sodipodi:cy="243.27881"
       sodipodi:rx="8.2853556"
       sodipodi:ry="8.2853556"
       sodipodi:start="0"
       sodipodi:end="6.2797994"
       sodipodi:open="true"
       d="m 37.016829,243.27881 a 8.2853556,8.2853556 0 0 1 -8.278342,8.28535 8.2853556,8.2853556 0 0 1 -8.292357,-8.27132 8.2853556,8.2853556 0 0 1 8.264304,-8.29936 8.2853556,8.2853556 0 0 1 8.306348,8.25728" />
    <path
       style="fill:#ffffff;fill-opacity:0.34328359;stroke:none;stroke-width:0;stroke-linecap:round;stroke-miterlimit:4;stroke-dasharray:none;stroke-opacity:0.96825406"
       id="path823"
       sodipodi:type="arc"
       sodipodi:cx="60.536549"
       sodipodi:cy="239.0025"
       sodipodi:rx="6.6817379"
       sodipodi:ry="6.6817379"
       sodipodi:start="0"
       sodipodi:end="6.2797994"
       sodipodi:open="true"
       d="m 67.218287,239.0025 a 6.6817379,6.6817379 0 0 1 -6.676082,6.68174 6.6817379,6.6817379 0 0 1 -6.687385,-6.67043 6.6817379,6.6817379 0 0 1 6.664761,-6.69302 6.6817379,6.6817379 0 0 1 6.698667,6.65909" />
    <path
       style="fill:#ffffff;fill-opacity:0.34328359;stroke:none;stroke-width:0;stroke-linecap:round;stroke-miterlimit:4;stroke-dasharray:none;stroke-opacity:0.96825406"
       id="path825"
       sodipodi:type="arc"
       sodipodi:cx="-0.80180693"
       sodipodi:cy="253.96959"
       sodipodi:rx="16.30344"
       sodipodi:ry="16.30344"
       sodipodi:start="0"
       sodipodi:end="6.2797994"
       sodipodi:open="true"
       d="M 15.501633,253.96959 A 16.30344,16.30344 0 0 1 -0.78800644,270.27302 16.30344,16.30344 0 0 1 -17.105224,253.99719 16.30344,16.30344 0 0 1 -0.84320833,237.6662 16.30344,16.30344 0 0 1 15.50154,253.91439" />
    <path
       style="fill:#ffffff;fill-opacity:0.34328359;stroke:none;stroke-width:0;stroke-linecap:round;stroke-miterlimit:4;stroke-dasharray:none;stroke-opacity:0.96825406"
       id="path829"
       sodipodi:type="arc"
       sodipodi:cx="16.437077"
       sodipodi:cy="281.09744"
       sodipodi:rx="7.8844509"
       sodipodi:ry="7.8844509"
       sodipodi:start="0"
       sodipodi:end="6.2797994"
       sodipodi:open="true"
       d="m 24.321527,281.09744 a 7.8844509,7.8844509 0 0 1 -7.877776,7.88445 7.8844509,7.8844509 0 0 1 -7.891114,-7.8711 7.8844509,7.8844509 0 0 1 7.864418,-7.89777 7.8844509,7.8844509 0 0 1 7.904427,7.85773" />
    <path
       style="fill:#ffffff;fill-opacity:0.34328359;stroke:none;stroke-width:0;stroke-linecap:round;stroke-miterlimit:4;stroke-dasharray:none;stroke-opacity:0.96825406"
       id="path831"
       sodipodi:type="arc"
       sodipodi:cx="51.850292"
       sodipodi:cy="292.18915"
       sodipodi:rx="17.907059"
       sodipodi:ry="17.907059"
       sodipodi:start="0"
       sodipodi:end="6.2797994"
       sodipodi:open="true"
       d="M 69.757351,292.18915 A 17.907059,17.907059 0 0 1 51.86545,310.0962 17.907059,17.907059 0 0 1 33.943259,292.21946 a 17.907059,17.907059 0 0 1 17.86156,-17.93731 17.907059,17.907059 0 0 1 17.952429,17.84637" />
  </g>
</svg>
