<?xml version="1.0" encoding="UTF-8" standalone="no"?>
<!-- Created with Inkscape (http://www.inkscape.org/) -->

<svg
   xmlns:dc="http://purl.org/dc/elements/1.1/"
   xmlns:cc="http://creativecommons.org/ns#"
   xmlns:rdf="http://www.w3.org/1999/02/22-rdf-syntax-ns#"
   xmlns:svg="http://www.w3.org/2000/svg"
   xmlns="http://www.w3.org/2000/svg"
   xmlns:sodipodi="http://sodipodi.sourceforge.net/DTD/sodipodi-0.dtd"
   xmlns:inkscape="http://www.inkscape.org/namespaces/inkscape"
   width="256"
   height="256"
   viewBox="0 0 67.733332 67.733335"
   version="1.1"
   id="svg8"
   inkscape:version="0.92.3 (d244b95, 2018-08-02)"
   sodipodi:docname="drawing.svg">
  <defs
     id="defs2" />
  <sodipodi:namedview
     id="base"
     pagecolor="#ffffff"
     bordercolor="#666666"
     borderopacity="1.0"
     inkscape:pageopacity="0.0"
     inkscape:pageshadow="2"
     inkscape:zoom="1.979899"
     inkscape:cx="111.40394"
     inkscape:cy="143.26324"
     inkscape:document-units="mm"
     inkscape:current-layer="layer1"
     showgrid="false"
     units="px"
     inkscape:window-width="1920"
     inkscape:window-height="1025"
     inkscape:window-x="0"
     inkscape:window-y="27"
     inkscape:window-maximized="1" />
  <metadata
     id="metadata5">
    <rdf:RDF>
      <cc:Work
         rdf:about="">
        <dc:format>image/svg+xml</dc:format>
        <dc:type
           rdf:resource="http://purl.org/dc/dcmitype/StillImage" />
        <dc:title></dc:title>
      </cc:Work>
    </rdf:RDF>
  </metadata>
  <g
     inkscape:label="Layer 1"
     inkscape:groupmode="layer"
     id="layer1"
     transform="translate(0,-229.26665)">
    <path
       style="fill:#ffffff;fill-opacity:0.34328359;stroke:none;stroke-width:0;stroke-linecap:round;stroke-miterlimit:4;stroke-dasharray:none;stroke-opacity:0.96825406"
       id="path815"
       sodipodi:type="arc"
       sodipodi:cx="14.03165"
       sodipodi:cy="250.896"
       sodipodi:rx="4.4099469"
       sodipodi:ry="4.4099469"
       sodipodi:start="0"
       sodipodi:end="6.2797994"
       sodipodi:open="true"
       d="m 18.441597,250.896 a 4.4099469,4.4099469 0 0 1 -4.406214,4.40994 4.4099469,4.4099469 0 0 1 -4.413674,-4.40248 4.4099469,4.4099469 0 0 1 4.398742,-4.4174 4.4099469,4.4099469 0 0 1 4.42112,4.395" />
    <path
       style="fill:#ffffff;fill-opacity:0.34328359;stroke:none;stroke-width:0;stroke-linecap:round;stroke-miterlimit:4;stroke-dasharray:none;stroke-opacity:0.96825406"
       id="path821"
       sodipodi:type="arc"
       sodipodi:cx="36.348656"
       sodipodi:cy="259.44861"
       sodipodi:rx="8.2853556"
       sodipodi:ry="8.2853556"
       sodipodi:start="0"
       sodipodi:end="6.2797994"
       sodipodi:open="true"
       d="m 44.634011,259.44861 a 8.2853556,8.2853556 0 0 1 -8.278342,8.28535 8.2853556,8.2853556 0 0 1 -8.292357,-8.27132 8.2853556,8.2853556 0 0 1 8.264304,-8.29936 8.2853556,8.2853556 0 0 1 8.306348,8.25728" />
    <path
       style="fill:#ffffff;fill-opacity:0.34328359;stroke:none;stroke-width:0;stroke-linecap:round;stroke-miterlimit:4;stroke-dasharray:none;stroke-opacity:0.96825406"
       id="path823"
       sodipodi:type="arc"
       sodipodi:cx="54.122078"
       sodipodi:cy="241.94246"
       sodipodi:rx="6.6817379"
       sodipodi:ry="6.6817379"
       sodipodi:start="0"
       sodipodi:end="6.2797994"
       sodipodi:open="true"
       d="m 60.803816,241.94246 a 6.6817379,6.6817379 0 0 1 -6.676082,6.68173 6.6817379,6.6817379 0 0 1 -6.687384,-6.67042 6.6817379,6.6817379 0 0 1 6.66476,-6.69303 6.6817379,6.6817379 0 0 1 6.698668,6.6591" />
    <path
       style="fill:#ffffff;fill-opacity:0.34328359;stroke:none;stroke-width:0;stroke-linecap:round;stroke-miterlimit:4;stroke-dasharray:none;stroke-opacity:0.96825406"
       id="path825"
       sodipodi:type="arc"
       sodipodi:cx="52.919369"
       sodipodi:cy="283.50287"
       sodipodi:rx="16.30344"
       sodipodi:ry="16.30344"
       sodipodi:start="0"
       sodipodi:end="6.2797994"
       sodipodi:open="true"
       d="M 69.222809,283.50287 A 16.30344,16.30344 0 0 1 52.933169,299.8063 16.30344,16.30344 0 0 1 36.615952,283.53047 16.30344,16.30344 0 0 1 52.877967,267.19948 16.30344,16.30344 0 0 1 69.222715,283.44767" />
    <path
       style="fill:#ffffff;fill-opacity:0.34328359;stroke:none;stroke-width:0;stroke-linecap:round;stroke-miterlimit:4;stroke-dasharray:none;stroke-opacity:0.96825406"
       id="path829"
       sodipodi:type="arc"
       sodipodi:cx="12.294398"
       sodipodi:cy="278.29111"
       sodipodi:rx="7.8844509"
       sodipodi:ry="7.8844509"
       sodipodi:start="0"
       sodipodi:end="6.2797994"
       sodipodi:open="true"
       d="m 20.178849,278.29111 a 7.8844509,7.8844509 0 0 1 -7.877777,7.88445 7.8844509,7.8844509 0 0 1 -7.8911133,-7.8711 7.8844509,7.8844509 0 0 1 7.8644173,-7.89778 7.8844509,7.8844509 0 0 1 7.904428,7.85773" />
    <path
       style="fill:#ffffff;fill-opacity:0.34328362;stroke:none;stroke-width:0;stroke-linecap:round;stroke-miterlimit:4;stroke-dasharray:none;stroke-opacity:0.96825406"
       id="path831"
       sodipodi:type="arc"
       sodipodi:cx="12.962572"
       sodipodi:cy="221.22906"
       sodipodi:rx="17.907059"
       sodipodi:ry="17.907059"
       sodipodi:start="0"
       sodipodi:end="6.2797994"
       sodipodi:open="true"
       d="M 30.869631,221.22906 A 17.907059,17.907059 0 0 1 12.97773,239.13612 17.907059,17.907059 0 0 1 -4.944461,221.25938 17.907059,17.907059 0 0 1 12.917098,203.32206 17.907059,17.907059 0 0 1 30.869528,221.16843" />
  </g>
</svg>
